<svg xmlns="http://www.w3.org/2000/svg" viewBox="0 0 1024 1024"><defs><radialGradient id="bg" cx="50%" cy="34%" r="76%"><stop offset="0" stop-color="#17324d"/><stop offset=".52" stop-color="#071522"/><stop offset="1" stop-color="#02070d"/></radialGradient><linearGradient id="bronze" x1="0" y1="0" x2="1" y2="1"><stop stop-color="#d4ba7a"/><stop offset=".35" stop-color="#b38a3e"/><stop offset=".7" stop-color="#8d6b31"/><stop offset="1" stop-color="#c6a45f"/></linearGradient></defs><rect x="20" y="20" width="984" height="984" rx="215" fill="url(#bg)" stroke="#1d2d40" stroke-width="24"/><circle cx="512" cy="500" r="300" fill="none" stroke="url(#bronze)" stroke-width="38" stroke-dasharray="432 48" transform="rotate(-45 512 500)"/><circle cx="512" cy="500" r="210" fill="#07111c" stroke="#26384c" stroke-width="16"/><g fill="#e7ebf0" stroke="#02060b" stroke-width="25" stroke-linejoin="round"><path d="M512 330c-83 0-130 62-130 145v75c0 18-16 27-39 20-30-9-50 19-35 43 10 16 28 25 50 27-12 30-37 54-66 67 40 27 80 20 108 7 28 28 66 42 112 42s84-14 112-42c28 13 68 20 108-7-29-13-54-37-66-67 22-2 40-11 50-27 15-24-5-52-35-43-23 7-39-2-39-20v-75c0-83-47-145-130-145z"/></g><path d="M512 330c-83 0-130 62-130 145v75c0 18-16 27-39 20-30-9-50 19-35 43 10 16 28 25 50 27-12 30-37 54-66 67 40 27 80 20 108 7 28 28 66 42 112 42s84-14 112-42c28 13 68 20 108-7-29-13-54-37-66-67 22-2 40-11 50-27 15-24-5-52-35-43-23 7-39-2-39-20v-75c0-83-47-145-130-145z" fill="none" stroke="url(#bronze)" stroke-width="17" stroke-linejoin="round"/></svg>