<svg xmlns="http://www.w3.org/2000/svg" viewBox="0 0 1200 1200"><defs><radialGradient id="bg" cx="50%" cy="35%" r="80%"><stop offset="0" stop-color="#122846"/><stop offset="1" stop-color="#020913"/></radialGradient><linearGradient id="gold" x1="0" y1="0" x2="1" y2="1"><stop stop-color="#fff3a6"/><stop offset=".26" stop-color="#f8cb38"/><stop offset=".54" stop-color="#cf8e00"/><stop offset=".78" stop-color="#ffe879"/><stop offset="1" stop-color="#a96b00"/></linearGradient></defs><rect x="18" y="18" width="1164" height="1164" rx="210" fill="url(#bg)" stroke="url(#gold)" stroke-width="24"/><circle cx="600" cy="385" r="210" fill="none" stroke="url(#gold)" stroke-width="27" stroke-dasharray="310 34" transform="rotate(-45 600 385)"/><path d="M600 250c-65 0-101 48-101 113v59c0 14-13 21-31 16-23-7-39 15-27 34 8 12 22 20 39 21-10 23-29 42-51 52 31 21 63 16 84 6 22 22 51 33 87 33s65-11 87-33c21 10 53 15 84-6-22-10-41-29-51-52 17-1 31-9 39-21 12-19-4-41-27-34-18 5-31-2-31-16v-59c0-65-36-113-101-113z" fill="#fff" stroke="#050505" stroke-width="21" stroke-linejoin="round"/><path d="M600 250c-65 0-101 48-101 113v59c0 14-13 21-31 16-23-7-39 15-27 34 8 12 22 20 39 21-10 23-29 42-51 52 31 21 63 16 84 6 22 22 51 33 87 33s65-11 87-33c21 10 53 15 84-6-22-10-41-29-51-52 17-1 31-9 39-21 12-19-4-41-27-34-18 5-31-2-31-16v-59c0-65-36-113-101-113z" fill="none" stroke="url(#gold)" stroke-width="13" stroke-linejoin="round"/><text x="600" y="790" text-anchor="middle" font-family="Arial Black,Arial,sans-serif" font-size="132" font-style="italic" font-weight="900" fill="#fff">SNAP<tspan fill="url(#gold)">RECRUIT</tspan></text><line x1="170" y1="850" x2="1030" y2="850" stroke="url(#gold)" stroke-width="4"/><circle cx="600" cy="850" r="9" fill="#f7c735"/><text x="600" y="930" text-anchor="middle" font-family="Arial,sans-serif" font-size="45" letter-spacing="18" fill="#fff">FIND • CONNECT • RECRUIT</text></svg>